<svg xmlns="http://www.w3.org/2000/svg" viewBox="0 0 32 44"><title>locked@1x</title><g id="Layer_2" data-name="Layer 2"><g id="General"><g id="Lock_2x.png" data-name="Lock@2x.png"><path d="M28,18V12A12,12,0,0,0,4,12v6a4,4,0,0,0-4,4V40a4,4,0,0,0,4,4H28a4,4,0,0,0,4-4V22A4,4,0,0,0,28,18ZM6,12a10,10,0,0,1,20,0v6H6ZM30,40a2,2,0,0,1-2,2H4a2,2,0,0,1-2-2V22a2,2,0,0,1,2-2H28a2,2,0,0,1,2,2ZM16,26a4,4,0,0,0-3,6.66,3,3,0,1,0,5.93,0A4,4,0,0,0,16,26Zm1,5.72V33a1,1,0,0,1-2,0V31.72a2,2,0,1,1,2,0Z"/></g></g></g></svg>